<svg width="20" height="20" viewBox="0 0 20 20" fill="none" xmlns="http://www.w3.org/2000/svg">
    <g id="arrow_forward_24px">
        <path id="icon/navigation/arrow_forward_24px"
              d="M4.3406 10.8333H13.6489L9.58226 14.8999C9.25726 15.2249 9.25726 15.7583 9.58226 16.0833C9.90726 16.4083 10.4323 16.4083 10.7573 16.0833L16.2489 10.5916C16.5739 10.2666 16.5739 9.74159 16.2489 9.41659L10.7656 3.91659C10.6099 3.76055 10.3985 3.67285 10.1781 3.67285C9.95766 3.67285 9.74629 3.76055 9.5906 3.91659C9.2656 4.24159 9.2656 4.76659 9.5906 5.09159L13.6489 9.16659H4.3406C3.88226 9.16659 3.50726 9.54159 3.50726 9.99992C3.50726 10.4583 3.88226 10.8333 4.3406 10.8333Z"
              fill="#646572"/>
    </g>
</svg>
