<?xml version="1.0" standalone="no"?>
<!DOCTYPE svg PUBLIC "-//W3C//DTD SVG 20010904//EN"
 "http://www.w3.org/TR/2001/REC-SVG-20010904/DTD/svg10.dtd">
<svg version="1.0" xmlns="http://www.w3.org/2000/svg"
 width="512.000000pt" height="512.000000pt" viewBox="0 0 512.000000 512.000000"
 preserveAspectRatio="xMidYMid meet">
<metadata>
Created by potrace 1.16, written by Peter Selinger 2001-2019
</metadata>
<g transform="translate(0.000000,512.000000) scale(0.100000,-0.100000)"
fill="#000000" stroke="none">
<path d="M2140 5113 c-521 -52 -788 -146 -973 -343 -82 -87 -107 -139 -107
-221 0 -27 25 -144 55 -261 56 -220 86 -372 104 -542 19 -171 32 -534 25 -717
l-7 -176 -66 -32 c-94 -47 -251 -153 -322 -218 -355 -329 -301 -730 138 -1034
40 -27 130 -78 200 -113 671 -334 1717 -378 2498 -106 146 51 348 150 453 222
42 29 115 91 162 138 140 140 201 270 202 431 1 214 -132 414 -386 581 -89 59
-186 113 -190 106 -4 -5 12 -238 30 -441 l16 -188 -25 -37 c-176 -254 -629
-412 -1257 -438 -150 -6 -156 -6 -182 16 -33 25 -36 58 -9 91 18 23 26 24 198
30 505 20 883 128 1077 310 l59 55 -16 195 c-31 365 -40 588 -34 884 9 429 40
666 132 1010 59 218 63 249 38 306 -27 61 -118 156 -203 213 -208 140 -547
236 -975 276 -100 9 -551 12 -635 3z m-688 -702 c40 -16 125 -45 188 -64 659
-205 1340 -192 1884 35 144 61 180 65 210 25 19 -26 19 -30 6 -55 -40 -72
-443 -211 -760 -261 -359 -57 -815 -28 -1210 75 -212 56 -432 138 -457 171
-19 25 -16 60 7 83 27 27 46 25 132 -9z"/>
<path d="M1229 890 c-72 -13 -109 -56 -124 -142 -4 -24 -12 -39 -25 -43 -11
-3 -33 -23 -50 -43 -27 -33 -30 -43 -30 -108 0 -137 56 -256 147 -314 29 -19
56 -48 74 -78 103 -181 315 -214 549 -85 94 52 192 119 387 265 224 167 239
174 375 172 129 -2 126 0 373 -184 271 -203 399 -280 520 -315 80 -24 204 -17
263 14 51 26 117 91 142 141 10 20 38 49 62 64 89 57 145 164 154 295 6 89
-10 130 -67 169 -26 18 -36 33 -41 64 -9 48 -29 82 -63 104 -60 39 -154 34
-192 -11 -20 -23 -23 -37 -23 -113 0 -114 -11 -132 -81 -132 -67 0 -168 26
-439 115 -299 97 -353 108 -482 101 -129 -8 -150 -8 -271 0 -122 8 -175 -4
-482 -101 -275 -88 -378 -115 -438 -115 -68 0 -77 14 -77 121 0 83 -2 91 -27
119 -31 35 -80 49 -134 40z"/>
</g>
</svg>
